<?xml version="1.0" encoding="UTF-8" standalone="no"?>
<!DOCTYPE svg PUBLIC "-//W3C//DTD SVG 1.1//EN" "http://www.w3.org/Graphics/SVG/1.1/DTD/svg11.dtd">
<svg width="100%" height="100%" viewBox="0 0 66 103" version="1.1" xmlns="http://www.w3.org/2000/svg" xmlns:xlink="http://www.w3.org/1999/xlink" xml:space="preserve" xmlns:serif="http://www.serif.com/" style="fill-rule:evenodd;clip-rule:evenodd;stroke-linejoin:round;stroke-miterlimit:2;">
    <g id="Artboard1" transform="matrix(0.927066,0,0,2.65559,4.42139,28.6875)">
        <rect x="-4.769" y="-10.803" width="70.161" height="38.435" style="fill:none;"/>
        <clipPath id="_clip1">
            <rect x="-4.769" y="-10.803" width="70.161" height="38.435"/>
        </clipPath>
        <g clip-path="url(#_clip1)">
            <g id="cape-right" transform="matrix(1.07867,0,0,0.376564,-4.8955,-10.7284)">
                <g transform="matrix(0.707107,0.707107,-0.188692,0.188692,19.9873,-13.0471)">
                    <rect x="-0" y="0" width="8" height="102" style="fill:rgb(174,32,37);"/>
                </g>
                <g transform="matrix(0.707107,0.707107,-0.188692,0.188692,19.9873,-1.58271)">
                    <rect x="-0" y="0" width="8" height="102" style="fill:white;"/>
                </g>
                <g transform="matrix(0.707107,0.707107,-0.188692,0.188692,19.9873,9.88171)">
                    <rect x="-0" y="0" width="8" height="102" style="fill:rgb(174,32,37);"/>
                </g>
                <g transform="matrix(0.707107,0.707107,-0.188692,0.188692,19.9873,21.3461)">
                    <rect x="-0" y="0" width="8" height="102" style="fill:white;"/>
                </g>
                <g transform="matrix(0.707107,0.707107,-0.188692,0.188692,19.9873,32.8105)">
                    <rect x="-0" y="0" width="8" height="102" style="fill:rgb(174,32,37);"/>
                </g>
                <g transform="matrix(0.707107,0.707107,-0.188692,0.188692,19.9873,44.2749)">
                    <rect x="-0" y="0" width="8" height="102" style="fill:white;"/>
                </g>
                <g transform="matrix(0.707107,0.707107,-0.188692,0.188692,19.9873,55.7394)">
                    <rect x="-0" y="0" width="8" height="102" style="fill:rgb(174,32,37);"/>
                </g>
                <g transform="matrix(0.707107,0.707107,-0.188692,0.188692,19.9873,67.2038)">
                    <rect x="-0" y="0" width="8" height="102" style="fill:white;"/>
                </g>
                <g transform="matrix(0.707107,0.707107,-0.188692,0.188692,19.9873,78.6682)">
                    <rect x="-0" y="0" width="8" height="102" style="fill:rgb(174,32,37);"/>
                </g>
                <g transform="matrix(0.707107,0.707107,-0.188692,0.188692,19.9873,90.1326)">
                    <rect x="-0" y="0" width="8" height="102" style="fill:white;"/>
                </g>
                <g transform="matrix(1,0,0,1.01003,0.227679,-1.11384)">
                    <rect x="-0" y="0" width="8" height="102" style="fill:white;"/>
                </g>
                <g transform="matrix(1,0,0,1,19.7589,-0.227679)">
                    <rect x="-0" y="0" width="8" height="102" style="fill:white;"/>
                </g>
            </g>
        </g>
    </g>
</svg>
