<?xml version="1.0" encoding="UTF-8" standalone="no"?>
<!DOCTYPE svg PUBLIC "-//W3C//DTD SVG 1.1//EN" "http://www.w3.org/Graphics/SVG/1.1/DTD/svg11.dtd">
<svg width="100%" height="100%" viewBox="0 0 186 24" version="1.1" xmlns="http://www.w3.org/2000/svg" xmlns:xlink="http://www.w3.org/1999/xlink" xml:space="preserve" xmlns:serif="http://www.serif.com/" style="fill-rule:evenodd;clip-rule:evenodd;stroke-linejoin:round;stroke-miterlimit:2;">
    <g id="Artboard1" transform="matrix(0.606694,0,0,0.610672,0,-8.11669)">
        <rect x="0" y="13.291" width="306.036" height="38.045" style="fill:none;"/>
        <g id="FVV-Logo" serif:id="FVV Logo" transform="matrix(1.64828,0,0,1.63754,0,9.95105)">
            <g transform="matrix(0.081401,0,0,0.081401,47.0927,10.5383)">
                <g>
                    <g>
                        <g id="Layer-1" serif:id="Layer 1">
                            <path d="M0,78.444C-2.013,82.128 -6.421,84.422 -11.504,84.429L-239.608,84.83L-239.639,84.83C-244.682,84.83 -249.079,82.572 -251.12,78.932C-252.697,76.121 -252.626,72.917 -250.925,70.141L-237.302,47.928L-235.88,45.611L-225.29,28.342C-223.182,24.905 -218.86,22.775 -214.003,22.775L-213.957,22.775L-164.558,22.913C-165.206,25.802 -165.867,28.805 -166.546,31.938L-213.982,31.803L-214.003,31.803C-215.925,31.803 -217.28,32.553 -217.593,33.064L-226.73,47.964L-228.001,50.036L-243.118,74.683C-242.73,75.094 -241.58,75.798 -239.639,75.798L-239.624,75.798L-11.521,75.4C-9.588,75.396 -8.443,74.698 -8.054,74.289L-23.196,50.597L-34.092,33.552C-34.413,33.049 -35.77,32.304 -37.658,32.299L-68.692,32.213C-69.548,30.64 -70.708,29.367 -72.204,28.356C-74.732,26.645 -77.239,24.93 -79.825,23.152L-37.634,23.27C-32.885,23.283 -28.612,25.36 -26.484,28.69L-14.188,47.925L-0.338,69.593C1.435,72.368 1.558,75.592 0,78.444M-87.227,128.002C-94.736,129.405 -97.313,121.401 -97.909,118.101C-99.421,109.726 -101.635,96.966 -103.407,87.286L-86.503,87.256C-84.629,96.937 -82.349,108.716 -81.278,116.872C-80.78,120.67 -80.262,126.699 -87.227,128.002M-160.221,121C-163.679,126.636 -168.307,129.798 -172.98,127.031C-177.564,124.316 -178.604,120.04 -175.717,115.159C-172.41,109.565 -164.122,96.69 -160.797,91.108C-160.054,89.86 -159.294,88.622 -158.535,87.382L-139.689,87.348C-145.851,97.446 -154.471,111.623 -160.221,121M-147.827,31.989C-147.171,28.99 -146.524,25.97 -145.911,22.965L-143.201,22.972C-143.882,25.964 -144.57,28.989 -145.249,31.998L-147.827,31.989ZM-99.291,32.127L-110.021,32.095C-109.339,29.074 -108.657,26.061 -107.98,23.072C-107.941,22.901 -107.902,22.726 -107.864,22.555C-107.771,22.731 -107.674,22.902 -107.577,23.073C-105.604,26.608 -102.861,29.603 -99.291,32.127M-157.017,8.004C-148.32,0.819 -139.499,-6.213 -130.769,-13.357C-128.381,-15.309 -125.949,-17.142 -122.895,-17.807C-117.449,-18.993 -112.713,-17.553 -109.005,-13.396C-107.596,-11.818 -106.496,-9.906 -105.521,-8.008C-101.314,0.188 -97.216,8.438 -93.043,16.65C-92.725,17.277 -92.255,17.815 -91.678,18.215C-85.711,22.369 -79.735,26.511 -73.714,30.587C-71.979,31.76 -70.936,33.328 -70.31,35.271C-70.346,36.098 -70.379,36.843 -70.416,37.673C-72.747,43.131 -76.653,44.243 -81.627,40.831C-86.215,37.683 -90.624,34.237 -95.408,31.427C-100.828,28.244 -104.735,24.033 -106.882,18.135C-107.323,16.923 -108.035,15.808 -108.641,14.614C-108.813,14.763 -108.866,14.786 -108.874,14.82C-110.936,23.92 -113.002,33.016 -115.024,42.125C-115.121,42.556 -114.98,43.202 -114.699,43.536C-114.053,44.302 -113.404,45.068 -112.757,45.837C-105.846,54.039 -98.916,62.224 -91.972,70.399C-91.293,71.2 -90.614,71.993 -90.038,72.842L-111.321,72.881C-117.768,66.087 -126.148,57.265 -128.458,54.474C-129.189,53.59 -129.278,54.446 -129.349,54.751C-129.425,55.082 -129.444,55.424 -129.535,55.753C-131.818,63.985 -132.207,66.217 -133.25,70.873C-133.402,71.554 -133.549,72.238 -133.695,72.921L-151.699,72.952C-151.617,72.581 -151.536,72.211 -151.452,71.842C-150.148,66.12 -148.861,60.392 -147.576,54.666C-146.035,47.797 -144.5,40.925 -142.953,34.058C-141.205,26.303 -139.426,18.555 -137.667,10.803C-137.598,10.502 -137.59,10.186 -137.528,9.666C-138.744,10.632 -139.842,11.493 -140.926,12.371C-142.079,13.304 -142.923,13.963 -144.386,15.158C-146.802,17.133 -147.886,19.163 -148.455,21.965C-149.808,28.616 -151.304,35.24 -152.776,41.868C-153.469,44.98 -156.039,47.232 -158.827,47.274C-162.073,47.324 -164.764,45.565 -165.273,42.528C-165.573,40.744 -165.259,38.779 -164.873,36.97C-163.062,28.495 -161.187,20.032 -159.186,11.601C-158.874,10.292 -158.045,8.851 -157.017,8.004M-115.15,-49.721C-107.294,-49.743 -100.89,-43.219 -100.896,-35.254C-100.9,-27.473 -107.321,-21.093 -115.15,-21.091C-122.813,-21.077 -129.475,-27.018 -129.462,-35.32C-129.449,-44.032 -122.57,-49.702 -115.15,-49.721M-12.198,-102.511L-238.97,-102.511C-254.625,-102.511 -267.316,-89.82 -267.316,-74.163L-267.316,152.607C-267.316,168.262 -254.625,180.955 -238.97,180.955L-12.198,180.955C3.457,180.955 16.147,168.262 16.147,152.607L16.147,-74.163C16.147,-89.82 3.457,-102.511 -12.198,-102.511" style="fill:white;fill-rule:nonzero;"/>
                        </g>
                    </g>
                </g>
            </g>
            <g transform="matrix(0.101649,0,0,0.101649,0,2.19388)">
                <g>
                    <g>
                        <path d="M204.094,0.229C216.61,0.229 226.725,10.387 226.725,22.918L226.772,204.313C226.772,216.843 216.579,227 204.063,227L22.678,227C10.162,227 0,216.843 0,204.313L0.016,22.918C0.016,10.387 10.146,0.229 22.662,0.229L204.094,0.229ZM48.08,134.727L48.08,54.266L72.293,54.266L72.293,134.727L48.08,134.727ZM17.434,23.01L102.126,23.01L102.126,47.223L17.434,47.223L17.434,23.01ZM68.327,164.324L60.199,164.324L53.978,189.492L46.691,164.324L40.862,164.324L33.575,189.492L27.409,164.324L19.282,164.324L29.932,204.233L36.433,204.233L43.776,180.018L51.12,204.233L57.622,204.233L68.327,164.324ZM203.706,203.787L203.706,163.877L195.914,163.877L195.914,188.316L180.107,163.877L173.157,163.877L173.157,203.787L180.948,203.787L180.948,179.292L196.755,203.787L203.706,203.787ZM147.888,203.787L147.888,196.836L129.391,196.836L129.391,187.139L145.142,187.139L145.142,180.188L129.391,180.188L129.391,170.829L147.888,170.829L147.888,163.877L121.599,163.877L121.599,203.787L147.888,203.787ZM94.911,203.787L94.911,163.877L87.119,163.877L87.119,203.787L94.911,203.787ZM154.854,135.369L153.573,135.261C130.873,132.891 113.321,113.71 113.321,90.383L113.321,23.01L137.861,23.01L137.821,89.786C137.821,99.551 144.612,108.333 153.724,110.646C154.125,110.742 154.437,110.806 154.846,110.878L154.854,135.369ZM162.202,110.843C162.57,110.776 162.843,110.732 163.203,110.646C172.317,108.334 179.109,99.552 179.109,89.786L178.9,23.01L203.597,23.01L203.597,90.137C203.62,113.464 185.905,132.864 163.203,135.262L162.207,135.365L162.202,110.843Z" style="fill:white;"/>
                    </g>
                </g>
            </g>
            <g id="Schrift-als-Form" serif:id="Schrift als Form" transform="matrix(0.183108,0,0,0.218179,18.2241,56.2641)">
                <g>
                    <g transform="matrix(120.735,0,0,101.327,176.11,-160.089)">
                        <path d="M0.253,0.008C0.208,0.008 0.165,0.002 0.122,-0.009C0.079,-0.02 0.045,-0.033 0.02,-0.05L0.072,-0.162C0.096,-0.147 0.125,-0.134 0.159,-0.125C0.193,-0.115 0.226,-0.11 0.259,-0.11C0.325,-0.11 0.358,-0.126 0.358,-0.159C0.358,-0.174 0.349,-0.185 0.331,-0.192C0.313,-0.199 0.285,-0.204 0.248,-0.209C0.204,-0.216 0.168,-0.223 0.139,-0.232C0.11,-0.241 0.086,-0.256 0.065,-0.278C0.043,-0.3 0.033,-0.331 0.033,-0.372C0.033,-0.406 0.043,-0.436 0.063,-0.463C0.082,-0.489 0.111,-0.509 0.149,-0.524C0.186,-0.539 0.231,-0.546 0.282,-0.546C0.32,-0.546 0.358,-0.542 0.396,-0.534C0.433,-0.525 0.464,-0.514 0.489,-0.499L0.437,-0.388C0.39,-0.415 0.338,-0.428 0.282,-0.428C0.249,-0.428 0.224,-0.423 0.207,-0.414C0.19,-0.405 0.182,-0.393 0.182,-0.378C0.182,-0.361 0.191,-0.35 0.209,-0.343C0.227,-0.336 0.256,-0.33 0.295,-0.324C0.339,-0.317 0.375,-0.309 0.403,-0.301C0.431,-0.292 0.455,-0.277 0.476,-0.255C0.497,-0.233 0.507,-0.202 0.507,-0.163C0.507,-0.13 0.497,-0.1 0.477,-0.074C0.457,-0.048 0.428,-0.028 0.39,-0.014C0.351,0.001 0.306,0.008 0.253,0.008Z" style="fill:white;fill-rule:nonzero;"/>
                    </g>
                    <g transform="matrix(120.735,0,0,101.327,239.013,-160.089)">
                        <path d="M0.419,-0.026C0.404,-0.015 0.385,-0.006 0.363,-0.001C0.34,0.005 0.317,0.008 0.292,0.008C0.228,0.008 0.179,-0.008 0.143,-0.041C0.109,-0.074 0.091,-0.122 0.091,-0.185L0.091,-0.406L0.008,-0.406L0.008,-0.526L0.091,-0.526L0.091,-0.657L0.247,-0.657L0.247,-0.526L0.381,-0.526L0.381,-0.406L0.247,-0.406L0.247,-0.187C0.247,-0.164 0.253,-0.147 0.265,-0.135C0.276,-0.122 0.293,-0.116 0.314,-0.116C0.339,-0.116 0.36,-0.123 0.377,-0.136L0.419,-0.026Z" style="fill:white;fill-rule:nonzero;"/>
                    </g>
                    <g transform="matrix(120.735,0,0,101.327,290.325,-160.089)">
                        <path d="M0.221,-0.467C0.24,-0.493 0.265,-0.513 0.297,-0.526C0.328,-0.539 0.365,-0.546 0.406,-0.546L0.406,-0.402C0.389,-0.403 0.377,-0.404 0.371,-0.404C0.326,-0.404 0.291,-0.392 0.266,-0.367C0.241,-0.342 0.228,-0.304 0.228,-0.254L0.228,-0L0.072,-0L0.072,-0.538L0.221,-0.538L0.221,-0.467Z" style="fill:white;fill-rule:nonzero;"/>
                    </g>
                    <g transform="matrix(120.735,0,0,101.327,340.067,-160.089)">
                        <path d="M0.599,-0.267C0.599,-0.265 0.598,-0.251 0.596,-0.225L0.189,-0.225C0.196,-0.192 0.214,-0.165 0.241,-0.146C0.268,-0.127 0.302,-0.117 0.343,-0.117C0.371,-0.117 0.396,-0.121 0.418,-0.13C0.439,-0.138 0.459,-0.151 0.478,-0.169L0.561,-0.079C0.51,-0.021 0.436,0.008 0.339,0.008C0.278,0.008 0.225,-0.004 0.178,-0.028C0.131,-0.051 0.095,-0.084 0.07,-0.126C0.045,-0.168 0.032,-0.216 0.032,-0.269C0.032,-0.322 0.045,-0.369 0.07,-0.411C0.095,-0.454 0.129,-0.487 0.172,-0.51C0.216,-0.534 0.265,-0.546 0.319,-0.546C0.372,-0.546 0.419,-0.535 0.462,-0.512C0.505,-0.489 0.538,-0.457 0.563,-0.414C0.587,-0.372 0.599,-0.323 0.599,-0.267ZM0.32,-0.428C0.285,-0.428 0.255,-0.418 0.231,-0.398C0.207,-0.378 0.192,-0.351 0.187,-0.316L0.452,-0.316C0.447,-0.35 0.432,-0.377 0.408,-0.398C0.384,-0.418 0.355,-0.428 0.32,-0.428Z" style="fill:white;fill-rule:nonzero;"/>
                    </g>
                    <g transform="matrix(120.735,0,0,101.327,415.044,-160.089)">
                        <path d="M0.599,-0.267C0.599,-0.265 0.598,-0.251 0.596,-0.225L0.189,-0.225C0.196,-0.192 0.214,-0.165 0.241,-0.146C0.268,-0.127 0.302,-0.117 0.343,-0.117C0.371,-0.117 0.396,-0.121 0.418,-0.13C0.439,-0.138 0.459,-0.151 0.478,-0.169L0.561,-0.079C0.51,-0.021 0.436,0.008 0.339,0.008C0.278,0.008 0.225,-0.004 0.178,-0.028C0.131,-0.051 0.095,-0.084 0.07,-0.126C0.045,-0.168 0.032,-0.216 0.032,-0.269C0.032,-0.322 0.045,-0.369 0.07,-0.411C0.095,-0.454 0.129,-0.487 0.172,-0.51C0.216,-0.534 0.265,-0.546 0.319,-0.546C0.372,-0.546 0.419,-0.535 0.462,-0.512C0.505,-0.489 0.538,-0.457 0.563,-0.414C0.587,-0.372 0.599,-0.323 0.599,-0.267ZM0.32,-0.428C0.285,-0.428 0.255,-0.418 0.231,-0.398C0.207,-0.378 0.192,-0.351 0.187,-0.316L0.452,-0.316C0.447,-0.35 0.432,-0.377 0.408,-0.398C0.384,-0.418 0.355,-0.428 0.32,-0.428Z" style="fill:white;fill-rule:nonzero;"/>
                    </g>
                    <g transform="matrix(120.735,0,0,101.327,490.02,-160.089)">
                        <path d="M0.419,-0.026C0.404,-0.015 0.385,-0.006 0.363,-0.001C0.34,0.005 0.317,0.008 0.292,0.008C0.228,0.008 0.179,-0.008 0.143,-0.041C0.109,-0.074 0.091,-0.122 0.091,-0.185L0.091,-0.406L0.008,-0.406L0.008,-0.526L0.091,-0.526L0.091,-0.657L0.247,-0.657L0.247,-0.526L0.381,-0.526L0.381,-0.406L0.247,-0.406L0.247,-0.187C0.247,-0.164 0.253,-0.147 0.265,-0.135C0.276,-0.122 0.293,-0.116 0.314,-0.116C0.339,-0.116 0.36,-0.123 0.377,-0.136L0.419,-0.026Z" style="fill:white;fill-rule:nonzero;"/>
                    </g>
                    <g transform="matrix(120.735,0,0,101.327,541.332,-160.089)">
                        <path d="M0.228,-0.568L0.004,-0.568L0.004,-0.7L0.614,-0.7L0.614,-0.568L0.39,-0.568L0.39,-0L0.228,-0L0.228,-0.568Z" style="fill:white;fill-rule:nonzero;"/>
                    </g>
                    <g transform="matrix(120.735,0,0,101.327,613.29,-160.089)">
                        <path d="M0.394,0.012C0.294,0.012 0.216,-0.016 0.161,-0.071C0.105,-0.126 0.077,-0.205 0.077,-0.308L0.077,-0.7L0.239,-0.7L0.239,-0.314C0.239,-0.189 0.291,-0.126 0.395,-0.126C0.446,-0.126 0.484,-0.141 0.511,-0.172C0.538,-0.202 0.551,-0.249 0.551,-0.314L0.551,-0.7L0.711,-0.7L0.711,-0.308C0.711,-0.205 0.683,-0.126 0.627,-0.071C0.572,-0.016 0.494,0.012 0.394,0.012Z" style="fill:white;fill-rule:nonzero;"/>
                    </g>
                    <g transform="matrix(120.735,0,0,101.327,707.221,-160.089)">
                        <path d="M0.399,-0.546C0.466,-0.546 0.52,-0.526 0.561,-0.486C0.602,-0.446 0.622,-0.387 0.622,-0.308L0.622,-0L0.466,-0L0.466,-0.284C0.466,-0.327 0.457,-0.359 0.438,-0.38C0.419,-0.401 0.392,-0.411 0.357,-0.411C0.318,-0.411 0.286,-0.399 0.263,-0.375C0.24,-0.35 0.228,-0.314 0.228,-0.266L0.228,-0L0.072,-0L0.072,-0.538L0.221,-0.538L0.221,-0.475C0.242,-0.498 0.267,-0.515 0.298,-0.528C0.329,-0.54 0.362,-0.546 0.399,-0.546Z" style="fill:white;fill-rule:nonzero;"/>
                    </g>
                    <g transform="matrix(120.735,0,0,101.327,790.166,-160.089)">
                        <path d="M0.599,-0.267C0.599,-0.265 0.598,-0.251 0.596,-0.225L0.189,-0.225C0.196,-0.192 0.214,-0.165 0.241,-0.146C0.268,-0.127 0.302,-0.117 0.343,-0.117C0.371,-0.117 0.396,-0.121 0.418,-0.13C0.439,-0.138 0.459,-0.151 0.478,-0.169L0.561,-0.079C0.51,-0.021 0.436,0.008 0.339,0.008C0.278,0.008 0.225,-0.004 0.178,-0.028C0.131,-0.051 0.095,-0.084 0.07,-0.126C0.045,-0.168 0.032,-0.216 0.032,-0.269C0.032,-0.322 0.045,-0.369 0.07,-0.411C0.095,-0.454 0.129,-0.487 0.172,-0.51C0.216,-0.534 0.265,-0.546 0.319,-0.546C0.372,-0.546 0.419,-0.535 0.462,-0.512C0.505,-0.489 0.538,-0.457 0.563,-0.414C0.587,-0.372 0.599,-0.323 0.599,-0.267ZM0.32,-0.428C0.285,-0.428 0.255,-0.418 0.231,-0.398C0.207,-0.378 0.192,-0.351 0.187,-0.316L0.452,-0.316C0.447,-0.35 0.432,-0.377 0.408,-0.398C0.384,-0.418 0.355,-0.428 0.32,-0.428Z" style="fill:white;fill-rule:nonzero;"/>
                    </g>
                    <g transform="matrix(120.735,0,0,101.327,865.142,-160.089)">
                        <path d="M0.221,-0.467C0.24,-0.493 0.265,-0.513 0.297,-0.526C0.328,-0.539 0.365,-0.546 0.406,-0.546L0.406,-0.402C0.389,-0.403 0.377,-0.404 0.371,-0.404C0.326,-0.404 0.291,-0.392 0.266,-0.367C0.241,-0.342 0.228,-0.304 0.228,-0.254L0.228,-0L0.072,-0L0.072,-0.538L0.221,-0.538L0.221,-0.467Z" style="fill:white;fill-rule:nonzero;"/>
                    </g>
                </g>
            </g>
        </g>
    </g>
</svg>
