<?xml version="1.0" encoding="UTF-8" standalone="no"?>
<!DOCTYPE svg PUBLIC "-//W3C//DTD SVG 1.1//EN" "http://www.w3.org/Graphics/SVG/1.1/DTD/svg11.dtd">
<svg width="100%" height="100%" viewBox="0 0 48 48" version="1.1" xmlns="http://www.w3.org/2000/svg" xmlns:xlink="http://www.w3.org/1999/xlink" xml:space="preserve" xmlns:serif="http://www.serif.com/" style="fill-rule:evenodd;clip-rule:evenodd;stroke-linejoin:round;stroke-miterlimit:2;">
    <g id="subway-stairs">
        <g transform="matrix(0.188099,0,0,0.188099,-38.3006,-38.3881)">
            <path d="M385.661,459.376L387.836,368.345L396.975,372.976L397.432,459.417" style="fill-rule:nonzero;"/>
        </g>
        <g transform="matrix(1,0,0,1,3,0)">
            <path d="M23.938,12.174L22.998,20.922L23.964,32.02L41.127,32.02L42.088,20.934L41.148,12.174L23.938,12.174ZM30.697,24.725L31.786,25.814L33.036,25.814L34.106,24.743L34.106,16.855L36.058,16.855L36.058,25.465L36.085,25.493L36.058,25.52L36.058,25.532L36.046,25.532L33.77,27.808L33.728,27.765L31.049,27.765L31.029,27.785L31.009,27.765L31.003,27.765L31.003,27.759L28.775,25.532L28.745,25.532L28.745,25.502L28.714,25.47L28.745,25.438L28.745,16.855L30.697,16.855L30.697,24.725Z"/>
        </g>
        <path d="M20.573,48.024L1.951,48.024L1.951,43.048L6.647,43.048L6.647,38.482L11.157,38.482L11.157,33.757L15.059,33.757L15.059,29.656L20.573,29.656L20.573,48.024Z"/>
    </g>
</svg>
