<?xml version="1.0" encoding="UTF-8" standalone="no"?>
<!DOCTYPE svg PUBLIC "-//W3C//DTD SVG 1.1//EN" "http://www.w3.org/Graphics/SVG/1.1/DTD/svg11.dtd">
<svg width="100%" height="100%" viewBox="0 0 573 630" version="1.1" xmlns="http://www.w3.org/2000/svg" xmlns:xlink="http://www.w3.org/1999/xlink" xml:space="preserve" xmlns:serif="http://www.serif.com/" style="fill-rule:evenodd;clip-rule:evenodd;stroke-linejoin:round;stroke-miterlimit:2;">
    <g id="ArtBoard1" transform="matrix(1.22484,0,0,1,4.68495,4.24748)">
        <rect x="-3.825" y="-4.247" width="467" height="629" style="fill:none;"/>
        <g id="apartments-narrow-left" transform="matrix(0.816434,0,0,1,-0.559216,24.7525)">
            <g transform="matrix(1,-8.65475e-19,-1.50659e-18,1.74691,-1697.92,-999.726)">
                <path d="M1697.92,584.875L1697.92,908.875L2097.92,908.862L2097.92,584.875L1697.92,584.875Z" style="fill:rgb(54,99,135);fill-rule:nonzero;"/>
            </g>
            <g transform="matrix(1,0,0,1,-1697.92,-320.875)">
                <path d="M1894.52,540.766L1970.45,540.75L1970.5,388.875L1894.42,388.875L1894.52,540.766Z" style="fill:rgb(246,241,225);fill-rule:nonzero;"/>
            </g>
            <g transform="matrix(1,0,0,1,-1697.92,-320.875)">
                <path d="M1900.51,534.875L1964.79,534.875L1964.79,468.141L1900.51,468.084L1900.51,534.875Z" style="fill:rgb(50,49,86);fill-rule:nonzero;"/>
            </g>
            <g transform="matrix(1,0,0,1,-1697.92,-320.875)">
                <path d="M1900.51,462.248L1964.83,462.191L1964.79,395.109L1900.48,395.125L1900.51,462.248Z" style="fill:rgb(50,49,86);fill-rule:nonzero;"/>
            </g>
            <g transform="matrix(1,0,0,1,-1697.92,-320.875)">
                <path d="M1764.87,468.385L1847.86,468.451L1847.89,404.806L1764.8,404.774L1764.87,468.385Z" style="fill:rgb(246,241,225);fill-rule:nonzero;"/>
            </g>
            <g transform="matrix(3.18708,0,0,3.17766,-5549.26,-899.788)">
                <path d="M1764.87,468.385L1847.86,468.451L1847.89,404.806L1764.8,404.774L1764.87,468.385Z" style="fill:rgb(42,43,42);fill-rule:nonzero;"/>
            </g>
            <g transform="matrix(1,0,0,1,-1697.92,-320.875)">
                <path d="M1770.8,462.418L1841.85,462.551L1841.85,411.373L1770.8,411.328L1770.8,462.418Z" style="fill:rgb(50,49,86);fill-rule:nonzero;"/>
            </g>
            <g transform="matrix(1,0,0,1,-1697.92,-320.875)">
                <path d="M1964.84,540.541L2040.77,540.541L2040.86,388.887L1964.74,388.875L1964.84,540.541Z" style="fill:rgb(246,241,225);fill-rule:nonzero;"/>
            </g>
            <g transform="matrix(1,0,0,1,-1697.92,-320.875)">
                <path d="M1970.75,534.875L2035.03,534.917L2035.03,468.094L1970.75,468.084L1970.75,534.875Z" style="fill:rgb(50,49,86);fill-rule:nonzero;"/>
            </g>
            <g transform="matrix(1,0,0,1,-1697.92,-320.875)">
                <path d="M1970.75,462.246L2035.07,462.189L2035.03,395.109L1970.71,395.141L1970.75,462.246Z" style="fill:rgb(50,49,86);fill-rule:nonzero;"/>
            </g>
            <g transform="matrix(1,0,0,1,-1697.92,-320.875)">
                <rect x="1899.89" y="462.692" width="65.172" height="5.403" style="fill:rgb(246,241,225);fill-rule:nonzero;"/>
            </g>
            <g transform="matrix(1,0,0,1,-1697.92,-320.875)">
                <g opacity="0.3">
                    <path d="M1964.84,463.961L1900.51,528.08L1900.48,395.125L1964.8,395.125L1964.84,463.961Z" style="fill:rgb(13,24,36);fill-rule:nonzero;"/>
                </g>
            </g>
            <g transform="matrix(1,0,0,1,-1697.92,-320.875)">
                <g opacity="0.3">
                    <path d="M2033.09,395.125L1970.76,457.248L1970.72,395.125L2033.09,395.125Z" style="fill:rgb(13,24,36);fill-rule:nonzero;"/>
                </g>
            </g>
            <g transform="matrix(1,0,0,1,-1697.92,-320.875)">
                <g opacity="0.3">
                    <path d="M2035.01,534.922L2035.03,488.478L1986.55,534.916L2035.01,534.922Z" style="fill:rgb(13,24,36);fill-rule:nonzero;"/>
                </g>
            </g>
            <g transform="matrix(1,0,0,1,-1697.92,-320.875)">
                <path d="M1993.18,534.906L2035.03,492.847L2035.05,483.527L1983.77,534.876L1993.18,534.906Z" style="fill:rgb(73,74,114);fill-rule:nonzero;"/>
            </g>
            <g transform="matrix(1,0,0,1,-1697.92,-320.875)">
                <rect x="1897.68" y="462.244" width="68.914" height="5.844" style="fill:rgb(246,241,225);fill-rule:nonzero;"/>
            </g>
            <g transform="matrix(1,0,0,1,-1697.92,-322.875)">
                <path d="M2097.92,344.875L2102.42,335.437L1697.94,335.459L1697.92,344.853L2097.92,344.875Z" style="fill:rgb(216,211,203);fill-rule:nonzero;"/>
            </g>
            <g transform="matrix(1,0,0,1,-1697.92,-322.875)">
                <path d="M2102.42,335.44L2106.62,321.96L2106.62,310.563L2099.92,310.563L2099.92,321.96L1697.96,321.961L1697.94,335.46L2102.42,335.44Z" style="fill:white;fill-rule:nonzero;"/>
            </g>
            <g transform="matrix(1,0,0,1,-1697.92,-320.875)">
                <path d="M1697.92,920.875L2097.92,920.875L2097.92,908.875L1697.92,908.875L1697.92,920.875Z" style="fill:rgb(53,45,39);fill-rule:nonzero;"/>
            </g>
            <g id="stairs" transform="matrix(2.45597,0,0,2.45597,36.1707,-115.352)">
                <g transform="matrix(0.428068,0,0,0.428068,-782.681,-196.34)">
                    <path d="M1877.96,1127.75L2105.22,1127.75L2104.99,957.1L1878.11,957.082L1877.96,1127.75Z" style="fill:rgb(246,241,225);fill-rule:nonzero;"/>
                </g>
                <g transform="matrix(0.428068,0,0,0.428068,-783.109,-188.213)">
                    <path d="M1855.56,890.44L1844.53,939.45L2138.06,939.423L2127.07,890.441L1855.56,890.441L1855.56,890.44Z" style="fill:rgb(216,211,203);fill-rule:nonzero;"/>
                </g>
                <g transform="matrix(0.428068,0,0,0.428068,-783.109,-188.213)">
                    <path d="M1900.88,898.803L1893.53,931.449L2089.06,931.431L2081.74,898.802L1900.88,898.802L1900.88,898.803Z" style="fill:rgb(42,43,42);fill-rule:nonzero;"/>
                </g>
                <g transform="matrix(0.428068,0,0,0.428068,-59.5662,-98.4469)">
                    <path d="M238.808,693.594L228.547,693.594L224.06,693.585L224.059,715.278L228.396,715.319L228.435,705.508L235.884,705.359L235.908,701.133L228.585,701.133L228.569,697.949L238.785,697.817L238.808,693.594Z" style="fill:rgb(239,156,116);fill-rule:nonzero;"/>
                </g>
                <g transform="matrix(0.428068,0,0,0.428068,-55.8562,-62.7424)">
                    <path d="M291.95,814.426L285.514,814.426L288.665,741.345L291.256,742.072L291.95,814.426Z" style="fill:rgb(93,95,96);fill-rule:nonzero;"/>
                </g>
            </g>
        </g>
        <g id="subway-sign" transform="matrix(1.45975,0,0,1.78796,180.509,332.717)">
            <g transform="matrix(0.500471,0,0,0.500471,-54.0483,-130.141)">
                <path d="M355.465,278.346L432.686,278.346L434.508,321.32L428.692,372.779L356.217,372.779L343.643,321.32L355.465,278.346Z" style="fill:rgb(73,121,157);fill-rule:nonzero;"/>
            </g>
            <g transform="matrix(0.500471,0,0,0.500471,-54.0483,-130.141)">
                <path d="M428.755,364.913L356.403,364.913L351.276,315.283L356.265,278.284L428.866,278.284L433.858,315.315L428.755,364.913ZM346.831,268.805L341.835,315.315L346.97,374.313L438.214,374.313L443.323,315.377L438.325,268.805L346.831,268.805Z" style="fill:rgb(243,242,237);fill-rule:nonzero;"/>
            </g>
            <g transform="matrix(0.500471,0,0,0.500471,-54.0483,-130.141)">
                <rect x="372.39" y="293.695" width="10.375" height="46.125" style="fill:rgb(244,242,237);"/>
                <rect x="400.89" y="293.695" width="10.375" height="46.125" style="fill:rgb(244,242,237);"/>
                <g transform="matrix(0.7071,-0.7071,0.7071,0.7071,-129.958,370.295)">
                    <rect x="376.879" y="333.317" width="10.257" height="17.406" style="fill:rgb(244,242,237);"/>
                </g>
                <g transform="matrix(0.7071,0.7071,-0.7071,0.7071,359.568,-183.785)">
                    <rect x="396.504" y="333.442" width="10.257" height="17.406" style="fill:rgb(244,242,237);"/>
                </g>
                <rect x="384.39" y="341.32" width="14.625" height="10.375" style="fill:rgb(244,242,237);"/>
            </g>
        </g>
        <g transform="matrix(0.00262364,0.357586,-0.138816,0.00152799,440.687,155.902)">
            <path d="M399.411,833.426L376.723,833.426L387.836,368.345L404.485,372.329L399.411,833.426Z" style="fill:rgb(93,95,96);fill-rule:nonzero;"/>
        </g>
        <g transform="matrix(0.300851,-0.000397948,-8.82828e-05,-0.100129,270.573,378.847)">
            <path d="M399.411,833.426L376.723,833.426L380.919,379.096L397.341,379.677L399.411,833.426Z" style="fill:rgb(93,95,96);fill-rule:nonzero;"/>
        </g>
    </g>
</svg>
