<?xml version="1.0" encoding="UTF-8" standalone="no"?>
<!DOCTYPE svg PUBLIC "-//W3C//DTD SVG 1.1//EN" "http://www.w3.org/Graphics/SVG/1.1/DTD/svg11.dtd">
<svg width="100%" height="100%" viewBox="0 0 673 630" version="1.1" xmlns="http://www.w3.org/2000/svg" xmlns:xlink="http://www.w3.org/1999/xlink" xml:space="preserve" xmlns:serif="http://www.serif.com/" style="fill-rule:evenodd;clip-rule:evenodd;stroke-linejoin:round;stroke-miterlimit:2;">
    <g id="ArtBoard1" transform="matrix(1.44106,0,0,1,5.512,4.24748)">
        <rect x="-3.825" y="-4.247" width="467" height="629" style="fill:none;"/>
        <g id="apartments-narrow-right" transform="matrix(0.693932,0,0,1,68.3504,-4.24748)">
            <g transform="matrix(1,0,0,1,-2183.66,-296.875)">
                <path d="M2212.63,908.875L2612.63,908.875L2612.6,342.875L2212.63,342.875L2212.63,908.875Z" style="fill:rgb(245,240,224);fill-rule:nonzero;"/>
            </g>
            <g transform="matrix(1,0,0,1,-2183.66,-296.875)">
                <path d="M2436.94,540.517L2361.01,540.673L2360.96,389.063L2437.04,388.99L2436.94,540.517Z" style="fill:rgb(92,95,96);fill-rule:nonzero;"/>
            </g>
            <g transform="matrix(1,0,0,1,-2183.66,-296.875)">
                <path d="M2431.04,534.745L2366.76,534.917L2366.76,468.557L2431.04,468.5L2431.04,534.745Z" style="fill:rgb(50,49,86);fill-rule:nonzero;"/>
            </g>
            <g transform="matrix(1,0,0,1,-2183.66,-296.875)">
                <path d="M2431.04,462.704L2366.72,462.648L2366.76,394.879L2431.07,395L2431.04,462.704Z" style="fill:rgb(50,49,86);fill-rule:nonzero;"/>
            </g>
            <g transform="matrix(1,0,0,1,-2183.66,-296.875)">
                <path d="M2537.65,468.385L2483.69,468.451L2483.66,404.806L2537.72,404.774L2537.65,468.385Z" style="fill:rgb(92,95,96);fill-rule:nonzero;"/>
            </g>
            <g transform="matrix(1,0,0,1,-2183.66,-296.875)">
                <path d="M2531.72,462.418L2489.7,462.551L2489.7,411.373L2531.72,411.328L2531.72,462.418Z" style="fill:rgb(50,49,86);fill-rule:nonzero;"/>
            </g>
            <g transform="matrix(1,0,0,1,-2183.66,-296.875)">
                <path d="M2345.21,540.517L2269.28,540.673L2269.23,389.063L2345.31,388.99L2345.21,540.517Z" style="fill:rgb(92,95,96);fill-rule:nonzero;"/>
            </g>
            <g transform="matrix(1,0,0,1,-2183.66,-296.875)">
                <path d="M2339.3,534.745L2275.02,534.917L2275.02,468.557L2339.3,468.5L2339.3,534.745Z" style="fill:rgb(50,49,86);fill-rule:nonzero;"/>
            </g>
            <g transform="matrix(1,0,0,1,-2183.66,-296.875)">
                <path d="M2339.3,462.704L2274.98,462.648L2275.02,394.859L2339.34,394.863L2339.3,462.704Z" style="fill:rgb(50,49,86);fill-rule:nonzero;"/>
            </g>
            <g transform="matrix(1,0,0,1,-2183.66,-296.875)">
                <rect x="2366.49" y="462.692" width="65.172" height="5.653" style="fill:rgb(92,95,96);fill-rule:nonzero;"/>
            </g>
            <g transform="matrix(1,0,0,1,-2183.66,-296.875)">
                <g opacity="0.3">
                    <path d="M2326.54,394.834L2275.05,446.16L2275.04,394.875L2326.54,394.834Z" style="fill:rgb(13,24,36);fill-rule:nonzero;"/>
                </g>
            </g>
            <g transform="matrix(1,0,0,1,-2183.66,-296.875)">
                <g opacity="0.3">
                    <path d="M2431.05,534.734L2431.07,468.5L2422.69,468.496L2366.8,522.341L2366.76,534.937L2431.05,534.734Z" style="fill:rgb(13,24,36);fill-rule:nonzero;"/>
                </g>
            </g>
            <g transform="matrix(1,0,0,1,-2183.66,-296.875)">
                <path d="M2366.77,528.951L2427.01,468.502L2417.7,468.515L2366.76,519.521L2366.77,528.951Z" style="fill:rgb(73,74,114);fill-rule:nonzero;"/>
            </g>
            <g transform="matrix(1,0,0,1,-2183.66,-296.875)">
                <path d="M2431.03,462.676L2431.05,455.122L2423.5,462.686L2431.03,462.676Z" style="fill:rgb(73,74,114);fill-rule:nonzero;"/>
            </g>
            <g transform="matrix(1,0,0,1,-2183.66,-296.875)">
                <rect x="2273.28" y="462.661" width="68.914" height="5.905" style="fill:rgb(92,95,96);fill-rule:nonzero;"/>
            </g>
            <g transform="matrix(1,0,0,1,-2186.34,-298.875)">
                <path d="M2215.31,344.875L2210.89,335.437L2615.31,335.459L2615.31,344.875L2215.31,344.875Z" style="fill:rgb(205,172,128);fill-rule:nonzero;"/>
            </g>
            <g transform="matrix(1,0,0,1,-2186.34,-298.875)">
                <path d="M2210.91,335.44L2206.71,321.96L2206.73,310.563L2213.48,310.563L2213.48,321.96L2615.31,321.961L2615.31,335.46L2210.91,335.44Z" style="fill:white;fill-rule:nonzero;"/>
            </g>
            <g transform="matrix(1,0,0,1,-2183.66,-296.875)">
                <g opacity="0.3">
                    <path d="M2453.2,857.184L2506.05,804.475L2506.06,857.172L2453.2,857.184Z" style="fill:rgb(13,24,36);fill-rule:nonzero;"/>
                </g>
            </g>
            <g transform="matrix(1.00038,9.31085e-20,9.31085e-20,1,-2184.65,-296.875)">
                <rect x="2212.78" y="908.875" width="399.848" height="12" style="fill:rgb(53,45,39);fill-rule:nonzero;"/>
            </g>
            <g id="subway-sign" transform="matrix(-1.78796,0,0,1.78796,206.988,336.964)">
                <g transform="matrix(0.500471,0,0,0.500471,-54.0483,-130.141)">
                    <path d="M355.465,278.346L432.686,278.346L434.508,321.32L428.692,372.779L356.217,372.779L343.643,321.32L355.465,278.346Z" style="fill:rgb(73,121,157);fill-rule:nonzero;"/>
                </g>
                <g transform="matrix(0.500471,0,0,0.500471,-54.0483,-130.141)">
                    <path d="M428.755,364.913L356.403,364.913L351.276,315.283L356.265,278.284L428.866,278.284L433.858,315.315L428.755,364.913ZM346.831,268.805L341.835,315.315L346.97,374.313L438.214,374.313L443.323,315.377L438.325,268.805L346.831,268.805Z" style="fill:rgb(243,242,237);fill-rule:nonzero;"/>
                </g>
                <g transform="matrix(0.500471,0,0,0.500471,-54.0483,-130.141)">
                    <rect x="372.39" y="293.695" width="10.375" height="46.125" style="fill:rgb(244,242,237);"/>
                    <rect x="400.89" y="293.695" width="10.375" height="46.125" style="fill:rgb(244,242,237);"/>
                    <g transform="matrix(0.7071,-0.7071,0.7071,0.7071,-129.958,370.295)">
                        <rect x="376.879" y="333.317" width="10.257" height="17.406" style="fill:rgb(244,242,237);"/>
                    </g>
                    <g transform="matrix(0.7071,0.7071,-0.7071,0.7071,359.568,-183.785)">
                        <rect x="396.504" y="333.442" width="10.257" height="17.406" style="fill:rgb(244,242,237);"/>
                    </g>
                    <rect x="384.39" y="341.32" width="14.625" height="10.375" style="fill:rgb(244,242,237);"/>
                </g>
            </g>
            <g transform="matrix(-0.00321354,0.357586,0.170027,0.00152799,-111.688,160.149)">
                <path d="M399.411,833.426L376.723,833.426L387.836,368.345L404.485,372.329L399.411,833.426Z" style="fill:rgb(93,95,96);fill-rule:nonzero;"/>
            </g>
            <g transform="matrix(-0.368494,-0.000397948,0.000108132,-0.100129,96.674,383.094)">
                <path d="M399.411,833.426L376.723,833.426L380.919,379.096L397.341,379.677L399.411,833.426Z" style="fill:rgb(93,95,96);fill-rule:nonzero;"/>
            </g>
            <g id="stairs" transform="matrix(2.45597,0,0,2.45597,59.1381,-86.3517)">
                <g transform="matrix(0.428068,0,0,0.428068,-782.681,-196.34)">
                    <path d="M1877.96,1127.75L2105.22,1127.75L2104.99,957.1L1878.11,957.082L1877.96,1127.75Z" style="fill:rgb(49,49,86);fill-rule:nonzero;"/>
                </g>
                <g transform="matrix(0.428068,0,0,0.428068,-783.109,-188.213)">
                    <path d="M1855.56,890.44L1844.53,939.45L2138.06,939.423L2127.07,890.441L1855.56,890.441L1855.56,890.44Z" style="fill:rgb(206,173,128);fill-rule:nonzero;"/>
                </g>
                <g transform="matrix(0.428068,0,0,0.428068,-783.109,-188.213)">
                    <path d="M1900.88,898.803L1893.53,931.449L2089.06,931.431L2081.74,898.802L1900.88,898.802L1900.88,898.803Z" style="fill:rgb(42,43,42);fill-rule:nonzero;"/>
                </g>
                <g transform="matrix(0.428068,0,0,0.428068,-59.5662,-98.4469)">
                    <path d="M238.808,693.594L228.547,693.594L224.06,693.585L224.059,715.278L228.396,715.319L228.435,705.508L235.884,705.359L235.908,701.133L228.585,701.133L228.569,697.949L238.785,697.817L238.808,693.594Z" style="fill:rgb(239,156,116);fill-rule:nonzero;"/>
                </g>
                <g transform="matrix(0.428068,0,0,0.428068,-55.8562,-62.7424)">
                    <path d="M291.95,814.426L285.514,814.426L288.665,741.345L291.256,742.072L291.95,814.426Z" style="fill:rgb(93,95,96);fill-rule:nonzero;"/>
                </g>
            </g>
        </g>
    </g>
</svg>
