<svg width="673" height="630" xmlns="http://www.w3.org/2000/svg" clip-rule="evenodd">

 <g>
  <title>background</title>
  <rect fill="none" id="canvas_background" height="602" width="802" y="-1" x="-1"/>
 </g>
 <g>
  <title>Layer 1</title>
  <g transform="matrix(1.44106,0,0,1,5.512,4.24748) " id="ArtBoard1">
   <rect id="svg_1" fill="none" height="629" width="467" y="1.753" x="20.46268"/>
   <g transform="matrix(0.693932,0,0,1,68.3504,-4.24748) " id="apartments-narrow-right">
    <g id="svg_2" transform="matrix(1,0,0,1,-2183.66,-296.875) ">
     <path id="svg_3" fill="rgb(245,240,224)" fill-rule="nonzero" d="m2247.63008,914.875l400,0l-0.03,-566l-399.97,0l0,566z"/>
    </g>
    <g id="svg_4" transform="matrix(1,0,0,1,-2183.66,-296.875) ">
     <path id="svg_5" fill="rgb(92,95,96)" fill-rule="nonzero" d="m2471.94008,546.517l-75.93,0.156l-0.05,-151.61l76.08,-0.073l-0.1,151.527z"/>
    </g>
    <g id="svg_6" transform="matrix(1,0,0,1,-2183.66,-296.875) ">
     <path id="svg_7" fill="rgb(50,49,86)" fill-rule="nonzero" d="m2466.04008,540.745l-64.28,0.172l0,-66.36l64.28,-0.057l0,66.245z"/>
    </g>
    <g id="svg_8" transform="matrix(1,0,0,1,-2183.66,-296.875) ">
     <path id="svg_9" fill="rgb(50,49,86)" fill-rule="nonzero" d="m2466.04008,468.704l-64.32,-0.056l0.04,-67.769l64.31,0.121l-0.03,67.704z"/>
    </g>
    <g id="svg_10" transform="matrix(1,0,0,1,-2183.66,-296.875) ">
     <path id="svg_11" fill="rgb(92,95,96)" fill-rule="nonzero" d="m2572.65008,474.385l-53.96,0.066l-0.03,-63.645l54.06,-0.032l-0.07,63.611z"/>
    </g>
    <g id="svg_12" transform="matrix(1,0,0,1,-2183.66,-296.875) ">
     <path id="svg_13" fill="rgb(50,49,86)" fill-rule="nonzero" d="m2566.72008,468.418l-42.02,0.133l0,-51.178l42.02,-0.045l0,51.09z"/>
    </g>
    <g id="svg_14" transform="matrix(1,0,0,1,-2183.66,-296.875) ">
     <path id="svg_15" fill="rgb(92,95,96)" fill-rule="nonzero" d="m2380.21008,546.517l-75.93,0.156l-0.05,-151.61l76.08,-0.073l-0.1,151.527z"/>
    </g>
    <g id="svg_16" transform="matrix(1,0,0,1,-2183.66,-296.875) ">
     <path id="svg_17" fill="rgb(50,49,86)" fill-rule="nonzero" d="m2374.30008,540.745l-64.28,0.172l0,-66.36l64.28,-0.057l0,66.245z"/>
    </g>
    <g id="svg_18" transform="matrix(1,0,0,1,-2183.66,-296.875) ">
     <path id="svg_19" fill="rgb(50,49,86)" fill-rule="nonzero" d="m2374.30008,468.704l-64.32,-0.056l0.04,-67.789l64.32,0.004l-0.04,67.841z"/>
    </g>
    <g id="svg_20" transform="matrix(1,0,0,1,-2183.66,-296.875) ">
     <rect id="svg_21" fill="rgb(92,95,96)" fill-rule="nonzero" height="5.653" width="65.172" y="468.692" x="2401.49008"/>
    </g>
    <g id="svg_22" transform="matrix(1,0,0,1,-2183.66,-296.875) ">
     <g id="svg_23" opacity="0.3">
      <path id="svg_24" fill="rgb(13,24,36)" fill-rule="nonzero" d="m2361.54008,400.834l-51.49,51.326l-0.01,-51.285l51.5,-0.041z"/>
     </g>
    </g>
    <g id="svg_25" transform="matrix(1,0,0,1,-2183.66,-296.875) ">
     <g id="svg_26" opacity="0.3">
      <path id="svg_27" fill="rgb(13,24,36)" fill-rule="nonzero" d="m2466.05008,540.734l0.02,-66.234l-8.38,-0.004l-55.89,53.845l-0.04,12.596l64.29,-0.203z"/>
     </g>
    </g>
    <g id="svg_28" transform="matrix(1,0,0,1,-2183.66,-296.875) ">
     <path id="svg_29" fill="rgb(73,74,114)" fill-rule="nonzero" d="m2401.77008,534.951l60.24,-60.449l-9.31,0.013l-50.94,51.006l0.01,9.43z"/>
    </g>
    <g id="svg_30" transform="matrix(1,0,0,1,-2183.66,-296.875) ">
     <path id="svg_31" fill="rgb(73,74,114)" fill-rule="nonzero" d="m2466.03008,468.676l0.02,-7.554l-7.55,7.564l7.53,-0.01z"/>
    </g>
    <g id="svg_32" transform="matrix(1,0,0,1,-2183.66,-296.875) ">
     <rect id="svg_33" fill="rgb(92,95,96)" fill-rule="nonzero" height="5.905" width="68.914" y="468.661" x="2308.28008"/>
    </g>
    <g id="svg_34" transform="matrix(1,0,0,1,-2186.34,-298.875) ">
     <path id="svg_35" fill="rgb(205,172,128)" fill-rule="nonzero" d="m2250.31008,350.875l-4.42,-9.438l404.42,0.022l0,9.416l-400,0z"/>
    </g>
    <g id="svg_36" transform="matrix(1,0,0,1,-2186.34,-298.875) ">
     <path id="svg_37" fill="white" fill-rule="nonzero" d="m2245.91008,341.44l-4.2,-13.48l0.02,-11.397l6.75,0l0,11.397l401.83,0.001l0,13.499l-404.4,-0.02z"/>
    </g>
    <g id="svg_38" transform="matrix(1,0,0,1,-2183.66,-296.875) ">
     <g id="svg_39" opacity="0.3">
      <path id="svg_40" fill="rgb(13,24,36)" fill-rule="nonzero" d="m2488.20008,863.184l52.85,-52.709l0.01,52.697l-52.86,0.012z"/>
     </g>
    </g>
    <g id="svg_41" transform="matrix(1.00038,9.31085e-20,9.31085e-20,1,-2184.65,-296.875) ">
     <rect id="svg_42" fill="rgb(53,45,39)" fill-rule="nonzero" height="12" width="399.848" y="914.875" x="2247.76678"/>
    </g>
    <g transform="matrix(-1.78796,0,0,1.78796,206.988,336.964) " id="subway-sign">
     <g id="svg_43" transform="matrix(0.500471,0,0,0.500471,-54.0483,-130.141) ">
      <path id="svg_44" fill="rgb(73,121,157)" fill-rule="nonzero" d="m316.35099,285.05124l77.221,0l1.822,42.974l-5.816,51.459l-72.475,0l-12.574,-51.459l11.822,-42.974z"/>
     </g>
     <g id="svg_45" transform="matrix(0.500471,0,0,0.500471,-54.0483,-130.141) ">
      <path id="svg_46" fill="rgb(243,242,237)" fill-rule="nonzero" d="m389.64099,371.61824l-72.352,0l-5.127,-49.63l4.989,-36.999l72.601,0l4.992,37.031l-5.103,49.598zm-81.924,-96.108l-4.996,46.51l5.135,58.998l91.244,0l5.109,-58.936l-4.998,-46.572l-91.494,0z"/>
     </g>
     <g id="svg_47" transform="matrix(0.500471,0,0,0.500471,-54.0483,-130.141) ">
      <rect id="svg_48" fill="rgb(244,242,237)" height="46.125" width="10.375" y="300.40024" x="333.27599"/>
      <rect id="svg_49" fill="rgb(244,242,237)" height="46.125" width="10.375" y="300.40024" x="361.77599"/>
      <g id="svg_50" transform="matrix(0.7071,-0.7071,0.7071,0.7071,-129.958,370.295) ">
       <rect id="svg_51" fill="rgb(244,242,237)" height="17.406" width="10.257" y="310.40032" x="344.47959"/>
      </g>
      <g id="svg_52" transform="matrix(0.7071,0.7071,-0.7071,0.7071,359.568,-183.785) ">
       <rect id="svg_53" fill="rgb(244,242,237)" height="17.406" width="10.257" y="365.84141" x="373.58732"/>
      </g>
      <rect id="svg_54" fill="rgb(244,242,237)" height="10.375" width="14.625" y="348.02524" x="345.27599"/>
     </g>
    </g>
    <g id="svg_55" transform="matrix(-0.00321354,0.357586,0.170027,0.00152799,-111.688,160.149) ">
     <path id="svg_56" fill="rgb(93,95,96)" fill-rule="nonzero" d="m415.30928,1039.5766l-22.688,0l11.113,-465.081l16.649,3.984l-5.074,461.097z"/>
    </g>
    <g id="svg_57" transform="matrix(-0.368494,-0.000397948,0.000108132,-0.100129,96.674,383.094) ">
     <path id="svg_58" fill="rgb(93,95,96)" fill-rule="nonzero" d="m304.41212,773.88086l-22.688,0l4.196,-454.33l16.422,0.581l2.07,453.749z"/>
    </g>
    <g transform="matrix(2.45597,0,0,2.45597,59.1381,-86.3517) " id="stairs">
     <g id="svg_59" transform="matrix(0.428068,0,0,0.428068,-782.681,-196.34) ">
      <path id="svg_60" fill="rgb(49,49,86)" fill-rule="nonzero" d="m1911.25149,1133.4571l227.26,0l-0.23,-170.65l-226.88,-0.018l-0.15,170.668z"/>
     </g>
     <g id="svg_61" transform="matrix(0.428068,0,0,0.428068,-783.109,-188.213) ">
      <path id="svg_62" fill="rgb(206,173,128)" fill-rule="nonzero" d="m1888.85149,896.1471l-11.03,49.01l293.53,-0.027l-10.99,-48.982l-271.51,0l0,-0.001z"/>
     </g>
     <g id="svg_63" transform="matrix(0.428068,0,0,0.428068,-783.109,-188.213) ">
      <path id="svg_64" fill="rgb(42,43,42)" fill-rule="nonzero" d="m1934.17149,904.5101l-7.35,32.646l195.53,-0.018l-7.32,-32.629l-180.86,0l0,0.001z"/>
     </g>
     <g id="svg_65" transform="matrix(0.428068,0,0,0.428068,-59.5662,-98.4469) ">
      <path id="svg_66" fill="rgb(239,156,116)" fill-rule="nonzero" d="m272.09949,699.3011l-10.261,0l-4.487,-0.009l-0.001,21.693l4.337,0.041l0.039,-9.811l7.449,-0.149l0.024,-4.226l-7.323,0l-0.016,-3.184l10.216,-0.132l0.023,-4.223z"/>
     </g>
     <g id="svg_67" transform="matrix(0.428068,0,0,0.428068,-55.8562,-62.7424) ">
      <path id="svg_68" fill="rgb(93,95,96)" fill-rule="nonzero" d="m325.24149,820.1331l-6.436,0l3.151,-73.081l2.591,0.727l0.694,72.354z"/>
     </g>
    </g>
   </g>
  </g>
 </g>
</svg>