<?xml version="1.0" encoding="UTF-8" standalone="no"?>
<!DOCTYPE svg PUBLIC "-//W3C//DTD SVG 1.1//EN" "http://www.w3.org/Graphics/SVG/1.1/DTD/svg11.dtd">
<svg width="100%" height="100%" viewBox="0 0 339 565" version="1.1" xmlns="http://www.w3.org/2000/svg" xmlns:xlink="http://www.w3.org/1999/xlink" xml:space="preserve" xmlns:serif="http://www.serif.com/" style="fill-rule:evenodd;clip-rule:evenodd;stroke-linejoin:round;stroke-miterlimit:2;">
    <g id="Artboard1" transform="matrix(0.671851,0,0,1.1303,6.24648,251.735)">
        <rect x="-9.297" y="-222.715" width="504.024" height="499.321" style="fill:none;"/>
        <clipPath id="_clip1">
            <rect x="-9.297" y="-222.715" width="504.024" height="499.321"/>
        </clipPath>
        <g clip-path="url(#_clip1)">
            <g id="subway-elevator" transform="matrix(2.89788,0,0,1.7225,-86.007,-215.903)">
                <g id="elevator" transform="matrix(0.500471,0,0,0.500471,-54.0483,-118.13)">
                    <g transform="matrix(1,-8.65475e-19,-1.50659e-18,1.74691,-1697.92,-999.726)">
                        <path d="M1928.05,924.968L1928.05,1035.11L2041.77,1035.11L2041.77,924.968L1928.05,924.968Z" style="fill:rgb(54,99,135);fill-rule:nonzero;"/>
                    </g>
                    <g transform="matrix(1,0,0,1,-1697.92,-320.875)">
                        <path d="M1927.21,935.44L1922.53,953.989L2047.06,953.978L2042.4,935.44L1927.21,935.44Z" style="fill:rgb(216,211,203);fill-rule:nonzero;"/>
                    </g>
                    <g transform="matrix(1,0,0,1,0,-24)">
                        <rect x="239.825" y="673.945" width="46" height="157" style="fill:rgb(193,190,187);"/>
                    </g>
                    <g transform="matrix(1,0,0,1,0,-24)">
                        <path d="M242.804,683.058L242.804,820.755L282.639,820.755L282.639,683.329L242.804,683.058Z" style="fill:rgb(245,243,233);fill-rule:nonzero;"/>
                    </g>
                    <g transform="matrix(1,0,0,1,0,-24)">
                        <path d="M282.012,683.248L242.804,783.411L242.804,683.058L282.012,683.248Z" style="fill:rgb(231,230,222);fill-rule:nonzero;"/>
                    </g>
                    <g transform="matrix(1,0,0,1,0,-24)">
                        <path d="M282.639,820.756L282.641,737.04L249.089,820.539L282.639,820.756Z" style="fill:rgb(231,230,222);fill-rule:nonzero;"/>
                    </g>
                    <g transform="matrix(1,0,0,1,0,-24)">
                        <path d="M250.284,820.776L272.22,764.052L282.639,737.196L282.639,732.456L248.409,820.76L250.284,820.776Z" style="fill:rgb(216,211,203);fill-rule:nonzero;"/>
                    </g>
                    <g transform="matrix(1,0,0,1,0,-24)">
                        <rect x="287.825" y="673.945" width="44" height="157" style="fill:rgb(193,190,187);"/>
                    </g>
                    <g transform="matrix(1,0,0,1,0,-24)">
                        <path d="M290.674,683.058L290.674,820.755L328.777,820.755L328.777,683.329L290.674,683.058Z" style="fill:rgb(245,243,233);fill-rule:nonzero;"/>
                    </g>
                    <g transform="matrix(1,0,0,1,0,-24)">
                        <path d="M328.178,683.248L290.675,783.411L290.675,683.058L328.178,683.248Z" style="fill:rgb(231,230,222);fill-rule:nonzero;"/>
                    </g>
                    <g transform="matrix(1,0,0,1,0,-24)">
                        <path d="M328.777,820.756L328.78,737.04L296.686,820.539L328.777,820.756Z" style="fill:rgb(231,230,222);fill-rule:nonzero;"/>
                    </g>
                    <g transform="matrix(1,0,0,1,0,-24)">
                        <path d="M297.829,820.776L318.811,764.052L328.777,737.196L328.777,732.456L296.035,820.76L297.829,820.776Z" style="fill:rgb(216,211,203);fill-rule:nonzero;"/>
                    </g>
                </g>
                <g id="subway-sign">
                    <g transform="matrix(0.500471,0,0,0.500471,-54.0483,-130.141)">
                        <path d="M399.411,833.426L376.723,833.426L387.836,368.345L396.975,372.976L399.411,833.426Z" style="fill:rgb(93,95,96);fill-rule:nonzero;"/>
                    </g>
                    <g transform="matrix(0.500471,0,0,0.500471,-54.0483,-130.141)">
                        <path d="M376.72,833.426L399.411,833.426L381.007,657.037L376.72,833.426Z" style="fill:rgb(42,43,42);fill-rule:nonzero;"/>
                    </g>
                    <g transform="matrix(0.500471,0,0,0.500471,-54.0483,-130.141)">
                        <path d="M397.62,497.845L387.838,368.347L396.976,372.993L397.62,497.845Z" style="fill:rgb(42,43,42);fill-rule:nonzero;"/>
                    </g>
                    <g transform="matrix(0.500471,0,0,0.500471,-54.0483,-130.141)">
                        <path d="M355.465,278.346L432.686,278.346L434.508,321.32L428.692,372.779L356.217,372.779L343.643,321.32L355.465,278.346Z" style="fill:rgb(73,121,157);fill-rule:nonzero;"/>
                    </g>
                    <g transform="matrix(0.500471,0,0,0.500471,-54.0483,-130.141)">
                        <path d="M428.755,364.913L356.403,364.913L351.276,315.283L356.265,278.284L428.866,278.284L433.858,315.315L428.755,364.913ZM346.831,268.805L341.835,315.315L346.97,374.313L438.214,374.313L443.323,315.377L438.325,268.805L346.831,268.805Z" style="fill:rgb(243,242,237);fill-rule:nonzero;"/>
                    </g>
                    <g transform="matrix(0.500471,0,0,0.500471,-54.0483,-130.141)">
                        <rect x="372.39" y="293.695" width="10.375" height="46.125" style="fill:rgb(244,242,237);"/>
                        <rect x="400.89" y="293.695" width="10.375" height="46.125" style="fill:rgb(244,242,237);"/>
                        <g transform="matrix(0.7071,-0.7071,0.7071,0.7071,-129.958,370.295)">
                            <rect x="376.879" y="333.317" width="10.257" height="17.406" style="fill:rgb(244,242,237);"/>
                        </g>
                        <g transform="matrix(0.7071,0.7071,-0.7071,0.7071,359.568,-183.785)">
                            <rect x="396.504" y="333.442" width="10.257" height="17.406" style="fill:rgb(244,242,237);"/>
                        </g>
                        <rect x="384.39" y="341.32" width="14.625" height="10.375" style="fill:rgb(244,242,237);"/>
                    </g>
                </g>
            </g>
        </g>
    </g>
</svg>
