<?xml version="1.0" encoding="UTF-8" standalone="no"?>
<!DOCTYPE svg PUBLIC "-//W3C//DTD SVG 1.1//EN" "http://www.w3.org/Graphics/SVG/1.1/DTD/svg11.dtd">
<svg width="100%" height="100%" viewBox="0 0 336 744" version="1.1" xmlns="http://www.w3.org/2000/svg" xmlns:xlink="http://www.w3.org/1999/xlink" xml:space="preserve" xmlns:serif="http://www.serif.com/" style="fill-rule:evenodd;clip-rule:evenodd;stroke-linejoin:round;stroke-miterlimit:2;">
    <g id="waste-side" transform="matrix(1,0,0,1,0,144)">
        <g transform="matrix(0.278968,0,0,0.320018,-507.934,282.279)">
            <path d="M2212.63,908.875L2612.63,908.875L2612.6,342.875L2212.63,342.875L2212.63,908.875Z" style="fill:rgb(193,190,187);fill-rule:nonzero;"/>
        </g>
        <g transform="matrix(0.278968,0,0,0.320018,-507.934,282.279)">
            <path d="M2212.63,908.875L2612.63,908.875L2612.6,342.875L2212.63,908.875Z" style="fill:rgb(92,94,95);fill-rule:nonzero;"/>
        </g>
        <g transform="matrix(0.395286,0,0,0.469087,-779.826,117.226)">
            <path d="M2230.49,673.949L2549.27,673.947L2537.22,584.915L2242.3,584.9L2230.49,673.949Z" style="fill:rgb(53,129,63);fill-rule:nonzero;"/>
        </g>
        <g transform="matrix(0.647877,0,0,0.647877,-0.846549,202.511)">
            <path d="M311.324,591.501C311.324,584.48 317.015,578.789 324.036,578.789C331.056,578.789 336.748,584.48 336.748,591.501C336.748,598.521 331.056,604.212 324.036,604.212C317.015,604.212 311.324,598.521 311.324,591.501M303.536,591.5C303.536,602.821 312.714,612 324.036,612C335.358,612 344.536,602.821 344.536,591.5C344.536,580.179 335.358,571 324.036,571C312.714,571 303.536,580.179 303.536,591.5" style="fill:rgb(42,43,42);fill-rule:nonzero;"/>
        </g>
        <g transform="matrix(0.647877,0,0,0.647877,-88.4688,202.511)">
            <path d="M311.324,591.501C311.324,584.48 317.015,578.789 324.036,578.789C331.056,578.789 336.748,584.48 336.748,591.501C336.748,598.521 331.056,604.212 324.036,604.212C317.015,604.212 311.324,598.521 311.324,591.501M303.536,591.5C303.536,602.821 312.714,612 324.036,612C335.358,612 344.536,602.821 344.536,591.5C344.536,580.179 335.358,571 324.036,571C312.714,571 303.536,580.179 303.536,591.5" style="fill:rgb(42,43,42);fill-rule:nonzero;"/>
        </g>
        <g transform="matrix(1.89216,0,0,1.89216,-152.965,-634.566)">
            <circle cx="145.056" cy="644.877" r="4.387" style="fill:rgb(92,94,95);"/>
        </g>
        <g transform="matrix(1.89216,0,0,1.89216,-65.2311,-634.394)">
            <circle cx="145.056" cy="644.877" r="4.387" style="fill:rgb(92,94,95);"/>
        </g>
    </g>
</svg>
