<?xml version="1.0" encoding="UTF-8" standalone="no"?>
<svg
   xmlns:dc="http://purl.org/dc/elements/1.1/"
   xmlns:cc="http://creativecommons.org/ns#"
   xmlns:rdf="http://www.w3.org/1999/02/22-rdf-syntax-ns#"
   xmlns:svg="http://www.w3.org/2000/svg"
   xmlns="http://www.w3.org/2000/svg"
   xmlns:sodipodi="http://sodipodi.sourceforge.net/DTD/sodipodi-0.dtd"
   xmlns:inkscape="http://www.inkscape.org/namespaces/inkscape"
   width="100%"
   height="100%"
   viewBox="0 0 240 408"
   version="1.1"
   xml:space="preserve"
   style="fill-rule:evenodd;clip-rule:evenodd;stroke-linejoin:round;stroke-miterlimit:1.41421;"
   id="svg100"
   sodipodi:docname="light-rail-inbound.svg"
   inkscape:version="1.0.2 (e86c870879, 2021-01-15)"><metadata
   id="metadata106"><rdf:RDF><cc:Work
       rdf:about=""><dc:format>image/svg+xml</dc:format><dc:type
         rdf:resource="http://purl.org/dc/dcmitype/StillImage" /></cc:Work></rdf:RDF></metadata><defs
   id="defs104" /><sodipodi:namedview
   pagecolor="#ffffff"
   bordercolor="#666666"
   borderopacity="1"
   objecttolerance="10"
   gridtolerance="10"
   guidetolerance="10"
   inkscape:pageopacity="0"
   inkscape:pageshadow="2"
   inkscape:window-width="1920"
   inkscape:window-height="1137"
   id="namedview102"
   showgrid="false"
   inkscape:zoom="4.4852754"
   inkscape:cx="93.389091"
   inkscape:cy="372.83861"
   inkscape:window-x="0"
   inkscape:window-y="0"
   inkscape:window-maximized="1"
   inkscape:current-layer="light-rail-inbound" />
    <g
   id="light-rail-inbound"
   transform="matrix(1.00015,0,0,1.00015,-1020.18,-357.389)">
        <g
   transform="matrix(1,0,0,1,10.1536,0)"
   id="g4">
            <path
   d="M1197.32,765.277L1185.87,765.277L1185.86,740.616L1199.02,740.827L1197.32,765.277Z"
   style="fill:rgb(40,41,40);fill-rule:nonzero;"
   id="path2" />
        </g>
        <g
   transform="matrix(1,0,0,1,11.0113,0)"
   id="g8">
            <path
   d="M1061.55,765.027L1073,765.027L1073.02,742.866L1059.86,743.077L1061.55,765.027Z"
   style="fill:rgb(40,41,40);fill-rule:nonzero;"
   id="path6" />
        </g>
        <g
   transform="matrix(1,0,0,1,10.7236,0)"
   id="g12">
            <path
   d="M1086.09,386.669L1119.17,452.002L1124.42,452.002L1091.42,386.669"
   style="fill:rgb(41,43,41);fill-rule:nonzero;"
   id="path10" />
        </g>
        <g
   transform="matrix(1,0,0,1,10.7236,0)"
   id="g16">
            <path
   d="M1169.42,386.669L1136.34,452.002L1131.09,452.002L1164.09,386.669"
   style="fill:rgb(41,43,41);fill-rule:nonzero;"
   id="path14" />
        </g>
        <g
   transform="matrix(1,0,0,1,10.7236,0)"
   id="g20">
            
        </g>
        <g
   transform="matrix(1,0,0,1,10.7236,0)"
   id="g24">
            <path
   d="M1102.23,449.866L1097.78,471.137L1156.98,471.032L1152.56,450.866L1102.23,449.866Z"
   style="fill:rgb(91,93,94);fill-rule:nonzero;"
   id="path22" />
        </g>
        <g
   transform="matrix(1,0,0,1,10.7236,0)"
   id="g28">
            <path
   d="M1032.47,734.277L1223.18,734.277L1220.37,481.63L1206.4,466.797L1050.41,466.821L1037.83,484.057L1032.47,734.277Z"
   style="fill:rgb(229,226,220);fill-rule:nonzero;"
   id="path26" />
        </g>
        <g
   transform="translate(10.7236,-25.9961)"
   id="g32">
            <path
   d="m 1058.6971,523.02378 -1.7371,146.27422 13.47,13.961 116,-0.338 13.56,-14.04 -0.331,-145.12338 z"
   style="fill:#313156;fill-rule:nonzero"
   id="path30"
   sodipodi:nodetypes="ccccccc" />
        </g>
        
        
        
        
        <g
   transform="matrix(1,0,0,1,10.7236,0)"
   id="g52">
            
        <path
   d="m 1050.41,466.821 -12.58,17.236 -0.04,11.56911 183.1122,-0.367 L 1220.37,481.63 1206.4,466.797 Z"
   style="clip-rule:evenodd;fill:#005999;fill-opacity:1;fill-rule:nonzero;stroke-linejoin:round;stroke-miterlimit:1.41421"
   id="path50-1"
   sodipodi:nodetypes="ccccccc" /></g>
        
        
        <g
   transform="matrix(1,0,0,1,10.7236,0)"
   id="g64">
            <path
   d="M1164,388.75L1194.31,389L1199.77,400.821L1205,400.188L1196.98,383.928L1167,383.928L1087.76,383.928L1058.78,383.928L1050.76,400.188L1055.98,400.821L1061.44,389L1085.76,388.75"
   style="fill:rgb(41,43,41);fill-rule:nonzero;"
   id="path62" />
        </g>
        <g
   transform="translate(10.7236,-25.9961)"
   id="g93">
            <clipPath
   id="_clip1">
                <path
   d="m 1056.96,669.297 13.46,13.961 116.01,-0.337 13.56,-14.041 -0.4,-175.359 -140.53,-1.052 z"
   id="path66" />
            </clipPath>
            <g
   clip-path="url(#_clip1)"
   id="g91">
                <g
   id="g78"
   transform="translate(0,5.9991)">
                    <clipPath
   id="_clip2">
                        <rect
   x="1054.71"
   y="518.99103"
   width="106.432"
   height="106.082"
   id="rect69" />
                    </clipPath>
                    <g
   clip-path="url(#_clip2)"
   id="g76">
                        <g
   opacity="0.300003"
   id="g74">
                            <path
   d="m 1161.14,518.991 -106.43,106.082 0.07,-106.078 z"
   style="fill:#0c1825;fill-rule:nonzero"
   id="path72" />
                        </g>
                    </g>
                </g>
                <g
   id="g89">
                    <clipPath
   id="_clip3">
                        <rect
   x="1101.0699"
   y="584.23401"
   width="101.244"
   height="102.038"
   id="rect80" />
                    </clipPath>
                    <g
   clip-path="url(#_clip3)"
   id="g87">
                        <g
   opacity="0.300003"
   id="g85">
                            <path
   d="m 1202.29,686.245 0.03,-102.011 -100,95.488 -1.25,6.55 z"
   style="fill:#0c1825;fill-rule:nonzero"
   id="path83" />
                        </g>
                    </g>
                </g>
            </g>
        </g>
        <g
   transform="translate(10.7236,-25.9961)"
   id="g97">
            <path
   d="m 1097.94,683.179 6.21,-0.018 95.65,-95.99 -0.01,-5.982 z"
   style="fill:#494b72;fill-rule:nonzero"
   id="path95" />
        </g>
    <path
   style="fill:#005999;stroke-width:0.113714"
   d="m 1140.9181,699.76988 c 3.4114,-5.91315 6.8228,-11.71258 10.2342,-17.62573 -6.5954,0 -13.0771,0.11371 -19.6725,0 1.4782,-2.50172 2.8428,-5.11715 4.3211,-7.61887 6.368,0 12.736,0 19.104,0 1.592,2.72915 3.184,5.45829 4.776,8.30115 -3.184,5.68572 -6.4817,11.37144 -9.7794,16.94345 -2.9566,-0.024 -6.0269,0 -8.9834,0 z m -2.0469,-34.11432 c -3.4114,6.02686 -6.9366,12.16744 -10.348,18.1943 6.5954,0 13.0771,0 19.6726,0 -1.4783,2.50172 -2.9566,5.11715 -4.4349,7.61887 -6.368,0 -12.736,0 -18.9903,0 -1.7057,-2.72915 -3.2977,-5.45829 -4.8897,-8.30115 3.2977,-5.91315 6.5954,-11.71259 10.0069,-17.51202"
   id="path2-6" /><path
   d="m 1057.7436,712.90523 0.04,31.71177 164.12,-0.47158 -0.32,-30.94593 z"
   style="clip-rule:evenodd;fill:#5c5f60;fill-rule:nonzero;stroke-width:1.13357;stroke-linejoin:round;stroke-miterlimit:1.41421"
   id="path18" /><g
   transform="translate(10.7236,-11.9982)"
   id="g36">
            <path
   d="m 1059.33,492.713 -0.45,26.429 140.87,-0.367 -0.07,-25.083 z"
   style="fill:#292b29;fill-rule:nonzero"
   id="path34" />
        </g><text
   xml:space="preserve"
   style="font-size:20.5594px;line-height:1.25;font-family:Arial;-inkscape-font-specification:Arial;stroke-width:0.513984"
   x="1098.0188"
   y="499.0043"
   id="text933"><tspan
     sodipodi:role="line"
     id="tspan931"
     x="1098.0188"
     y="499.0043"
     style="font-style:normal;font-variant:normal;font-weight:normal;font-stretch:normal;font-family:Gilbert;-inkscape-font-specification:Gilbert;fill:#e6c200;fill-opacity:1;stroke-width:0.513984">Wien Oper</tspan></text><rect
   style="fill:#e5e2dc;fill-opacity:1;stroke:none;stroke-width:0.377896;stroke-linecap:round;stroke-linejoin:round"
   id="rect985"
   width="148.27733"
   height="7.5957789"
   x="1065.3826"
   y="505.69751" /><path
   style="fill:#0e141a;fill-opacity:1;stroke:none;stroke-width:0.522303;stroke-linecap:round;stroke-linejoin:round"
   id="path987"
   sodipodi:type="arc"
   sodipodi:cx="-683.04211"
   sodipodi:cy="1090.3936"
   sodipodi:rx="14.0234"
   sodipodi:ry="14.0234"
   sodipodi:start="0"
   sodipodi:end="3.1415927"
   sodipodi:arc-type="slice"
   d="m -669.01871,1090.3936 a 14.0234,14.0234 0 0 1 -7.0117,12.1446 14.0234,14.0234 0 0 1 -14.0234,0 14.0234,14.0234 0 0 1 -7.0117,-12.1446 h 14.0234 z"
   transform="rotate(-90)" /><rect
   style="fill:#0e141a;fill-opacity:1;stroke:none;stroke-width:0.377896;stroke-linecap:round;stroke-linejoin:round"
   id="rect989"
   width="23.581118"
   height="28.011457"
   x="1066.9541"
   y="669.00275" /><circle
   style="fill:#d4d9aa;fill-opacity:1;stroke:none;stroke-width:0.518945;stroke-linecap:round;stroke-linejoin:round"
   id="path991"
   cx="1085.0391"
   cy="683.16107"
   r="5.7840948" /><path
   style="clip-rule:evenodd;fill:#0e141a;fill-opacity:1;fill-rule:evenodd;stroke:none;stroke-width:0.522303;stroke-linecap:round;stroke-linejoin:round;stroke-miterlimit:1.41421"
   id="path987-2"
   sodipodi:type="arc"
   sodipodi:cx="-683.04211"
   sodipodi:cy="-1187.0812"
   sodipodi:rx="14.0234"
   sodipodi:ry="14.0234"
   sodipodi:start="0"
   sodipodi:end="3.1415927"
   sodipodi:arc-type="slice"
   transform="matrix(0,-1,-1,0,0,0)"
   d="m -669.01871,-1187.0812 a 14.0234,14.0234 0 0 1 -7.0117,12.1446 14.0234,14.0234 0 0 1 -14.0234,0 14.0234,14.0234 0 0 1 -7.0117,-12.1446 h 14.0234 z" /><rect
   style="clip-rule:evenodd;fill:#0e141a;fill-opacity:1;fill-rule:evenodd;stroke:none;stroke-width:0.377896;stroke-linecap:round;stroke-linejoin:round;stroke-miterlimit:1.41421"
   id="rect989-1"
   width="23.581118"
   height="28.011457"
   x="-1210.5206"
   y="669.00275"
   transform="scale(-1,1)" /><circle
   style="clip-rule:evenodd;fill:#d4d9aa;fill-opacity:1;fill-rule:evenodd;stroke:none;stroke-width:0.518945;stroke-linecap:round;stroke-linejoin:round;stroke-miterlimit:1.41421"
   id="path991-5"
   cx="-1192.4357"
   cy="683.16107"
   r="5.7840948"
   transform="scale(-1,1)" /></g>
</svg>
